<svg width="90" height="90" viewBox="0 0 90 90" fill="none" xmlns="http://www.w3.org/2000/svg">
<circle cx="45" cy="45" r="45" fill="#3F2F92"/>
<path d="M20.4766 44.8437L28.1685 41.4785V32.825L36.8219 37.6325L44.5139 34.2673L28.1685 24.6523L20.4766 28.4983V44.8437Z" fill="#FFFF01"/>
<path d="M69.9976 28.5L63.2671 25.1348L54.6137 29.9422L60.3827 32.8267L20 51.5758V61.1907L26.2497 64.0752L35.3839 60.2292L29.6149 56.864L69.9976 38.5957V28.5Z" fill="#FFFF01"/>
<path d="M69.9982 60.2296V44.8457L62.787 47.7302V56.3836L53.6529 52.0569L45.9609 56.3836L62.787 64.5563L69.9982 60.2296Z" fill="#FFFF01"/>
<path d="M45.476 65.0363L41.1492 63.1133L32.9766 66.9592L45.476 73.6897L57.9754 66.9592L50.7642 63.1133L45.476 65.0363Z" fill="#FFFF01"/>
<path d="M45.476 16L32.9766 22.2497L40.6685 27.0572L45.476 24.6534L49.3219 27.0572L57.9754 23.2112L45.476 16Z" fill="#FFFF01"/>
</svg>
