<svg width="90" height="90" viewBox="0 0 90 90" fill="none" xmlns="http://www.w3.org/2000/svg">
<circle cx="45" cy="45" r="45" fill="#FFF200"/>
<path d="M55.8036 66.9626L43.3002 48.7963L41.5197 46.2104L27.011 25.1305H33.252L44.9853 42.1783L46.7657 44.7643L62.0445 66.9626H55.8036ZM64.6246 65.1881L48.8765 42.3093L47.0961 39.7217L35.8309 23.3557L34.8972 21.9994H21.0547L24.4306 26.905L39.409 48.6681L41.1895 51.2529L53.2243 68.739L54.1581 70.0938H68.0007L64.6246 65.1881Z" fill="#3F2F92"/>
<path d="M41.5191 46.2104L43.2996 48.7963L41.1889 51.2529L24.9936 70.0938H21L39.4083 48.6681L41.5191 46.2104Z" fill="#3F2F92"/>
<path d="M66.3332 22.0007L48.8756 42.3106L46.7648 44.7656L44.9844 42.1797L47.0952 39.7231L58.9207 25.9588L62.3395 22.0007H66.3332Z" fill="#3F2F92"/>
</svg>
