<svg width="90" height="90" viewBox="0 0 90 90" fill="none" xmlns="http://www.w3.org/2000/svg">
<circle cx="45" cy="45" r="45" fill="#3F2F92"/>
<path d="M68.8918 22.9939C68.6947 22.4053 68.4595 22.2504 68.092 22.1032C67.2884 21.8012 65.9272 22.2581 65.9272 22.2581C65.9272 22.2581 17.7372 39.8229 14.9841 41.7668C14.3913 42.185 14.1927 42.4328 14.0942 42.7193C13.6183 44.0979 15.101 44.7097 15.101 44.7097L27.5218 48.8143C27.5218 48.8143 27.9847 48.884 28.1497 48.7756C30.9754 46.9634 56.5787 30.5758 58.0553 30.0259C58.2883 29.9562 58.4609 30.0337 58.4151 30.1963C57.8238 32.3029 35.5862 52.3381 35.5862 52.3381C35.5862 52.3381 35.5014 52.4465 35.448 52.5705L35.4189 52.555L34.2601 65.047C34.2601 65.047 33.7743 68.8728 37.5487 65.047C40.2116 62.3441 42.7882 60.0827 44.0776 58.9907C48.3485 61.9801 52.9448 65.2871 54.9287 67.0141C55.9248 67.8815 56.7582 68.0209 57.4442 67.9977C59.3272 67.928 59.8527 65.8292 59.8527 65.8292C59.8527 65.8292 68.6344 29.995 68.9277 25.1933C68.9567 24.7209 68.9965 24.4266 68.9995 24.1013C69.0049 23.6521 68.9636 23.203 68.8918 22.9939Z" fill="#FFFF01"/>
</svg>
