<svg width="90" height="90" viewBox="0 0 90 90" fill="none" xmlns="http://www.w3.org/2000/svg">
<circle cx="45" cy="45" r="45" fill="#FFF200"/>
<path d="M68.8918 23.9939C68.6947 23.4053 68.4595 23.2504 68.092 23.1032C67.2884 22.8012 65.9272 23.2581 65.9272 23.2581C65.9272 23.2581 17.7372 40.8229 14.9841 42.7668C14.3913 43.185 14.1927 43.4328 14.0942 43.7193C13.6183 45.0979 15.101 45.7097 15.101 45.7097L27.5218 49.8143C27.5218 49.8143 27.9847 49.884 28.1497 49.7756C30.9754 47.9634 56.5787 31.5758 58.0553 31.0259C58.2883 30.9562 58.4609 31.0337 58.4151 31.1963C57.8238 33.3029 35.5862 53.3381 35.5862 53.3381C35.5862 53.3381 35.5014 53.4465 35.448 53.5705L35.4189 53.555L34.2601 66.047C34.2601 66.047 33.7743 69.8728 37.5487 66.047C40.2116 63.3441 42.7882 61.0827 44.0776 59.9907C48.3485 62.9801 52.9448 66.2871 54.9287 68.0141C55.9248 68.8815 56.7582 69.0209 57.4442 68.9977C59.3272 68.928 59.8527 66.8292 59.8527 66.8292C59.8527 66.8292 68.6344 30.995 68.9277 26.1933C68.9567 25.7209 68.9965 25.4266 68.9995 25.1013C69.0049 24.6521 68.9636 24.203 68.8918 23.9939Z" fill="#3F2F92"/>
</svg>
