<svg width="90" height="90" viewBox="0 0 90 90" fill="none" xmlns="http://www.w3.org/2000/svg">
<circle cx="45" cy="45" r="45" fill="#FFF200"/>
<path d="M19.5 45.1533L27.4996 41.6535V32.6539L36.4992 37.6537L44.4988 34.1538L27.4996 24.1543L19.5 28.1541V45.1533Z" fill="#3F2F92"/>
<path d="M70.9975 28.1541L63.9978 24.6543L54.9983 29.6541L60.998 32.6539L19 52.153V62.1525L25.4997 65.1524L34.9992 61.1526L28.9995 57.6527L70.9975 38.6536V28.1541Z" fill="#3F2F92"/>
<path d="M70.9988 61.1535V45.1543L63.4992 48.1542V57.1537L53.9996 52.6539L46 57.1537L63.4992 65.6533L70.9988 61.1535Z" fill="#3F2F92"/>
<path d="M45.4994 66.1522L40.9996 64.1523L32.5 68.1522L45.4994 75.1518L58.4988 68.1522L50.9991 64.1523L45.4994 66.1522Z" fill="#3F2F92"/>
<path d="M45.4994 15.1543L32.5 21.654L40.4996 26.6537L45.4994 24.1539L49.4992 26.6537L58.4988 22.6539L45.4994 15.1543Z" fill="#3F2F92"/>
</svg>
